<svg xmlns="http://www.w3.org/2000/svg" xmlns:xlink="http://www.w3.org/1999/xlink" width="500" zoomAndPan="magnify" viewBox="0 0 375 374.999991" height="500" preserveAspectRatio="xMidYMid meet" version="1.0"><defs><clipPath id="8fb24758bf"><path d="M 18.75 0 L 356.25 0 L 356.25 375 L 18.75 375 Z M 18.75 0 " clip-rule="nonzero"/></clipPath></defs><g clip-path="url(#8fb24758bf)"><path fill="#ebeff1" d="M 185.25 0.789062 L 21.402344 86.433594 C 19.78125 87.28125 18.765625 88.957031 18.765625 90.78125 L 18.765625 284.171875 C 18.765625 286 19.78125 287.675781 21.402344 288.523438 L 116.332031 338.144531 L 116.332031 301.917969 L 53.503906 269.078125 C 51.882812 268.230469 50.871094 266.554688 50.871094 264.730469 L 50.871094 110.226562 C 50.871094 108.402344 51.882812 106.726562 53.503906 105.878906 L 185.25 37.011719 C 186.671875 36.265625 188.371094 36.265625 189.792969 37.011719 L 321.539062 105.878906 C 323.160156 106.726562 324.171875 108.402344 324.171875 110.226562 L 324.171875 264.730469 C 324.171875 266.554688 323.160156 268.230469 321.539062 269.078125 L 227.480469 318.246094 L 227.480469 211.660156 L 260.566406 211.660156 L 187.519531 106.445312 L 114.476562 211.660156 L 147.5625 211.660156 L 147.5625 354.46875 L 183.109375 373.050781 L 185.25 374.167969 C 186.671875 374.914062 188.371094 374.914062 189.792969 374.167969 L 353.644531 288.523438 C 355.261719 287.675781 356.273438 286 356.273438 284.171875 L 356.273438 90.78125 C 356.273438 88.957031 355.261719 87.28125 353.644531 86.433594 L 189.792969 0.789062 C 188.371094 0.0429688 186.671875 0.0429688 185.25 0.789062 " fill-opacity="1" fill-rule="nonzero"/></g></svg>