<svg xmlns="http://www.w3.org/2000/svg" xmlns:xlink="http://www.w3.org/1999/xlink" width="500" zoomAndPan="magnify" viewBox="0 0 375 374.999991" height="500" preserveAspectRatio="xMidYMid meet" version="1.0"><defs><clipPath id="d1c49df178"><path d="M 37.5 18.75 L 341.25 18.75 L 341.25 356.25 L 37.5 356.25 Z M 37.5 18.75 " clip-rule="nonzero"/></clipPath></defs><g clip-path="url(#d1c49df178)"><path fill="#3870c2" d="M 187.347656 19.460938 L 39.886719 96.542969 C 38.429688 97.304688 37.515625 98.808594 37.515625 100.453125 L 37.515625 274.503906 C 37.515625 276.152344 38.429688 277.65625 39.886719 278.417969 L 125.324219 323.078125 L 125.324219 290.476562 L 68.777344 260.917969 C 67.320312 260.160156 66.40625 258.652344 66.40625 257.007812 L 66.40625 117.953125 C 66.40625 116.308594 67.320312 114.804688 68.777344 114.042969 L 187.347656 52.0625 C 188.628906 51.390625 190.160156 51.390625 191.441406 52.0625 L 310.011719 114.042969 C 311.46875 114.804688 312.378906 116.308594 312.378906 117.953125 L 312.378906 257.007812 C 312.378906 258.652344 311.46875 260.160156 310.011719 260.917969 L 225.359375 305.171875 L 225.359375 209.242188 L 255.132812 209.242188 L 189.394531 114.550781 L 123.65625 209.242188 L 153.433594 209.242188 L 153.433594 337.773438 L 185.421875 354.496094 L 187.347656 355.503906 C 188.628906 356.171875 190.160156 356.171875 191.441406 355.503906 L 338.90625 278.417969 C 340.363281 277.65625 341.273438 276.152344 341.273438 274.503906 L 341.273438 100.453125 C 341.273438 98.808594 340.363281 97.304688 338.90625 96.542969 L 191.441406 19.460938 C 190.160156 18.789062 188.628906 18.789062 187.347656 19.460938 " fill-opacity="1" fill-rule="nonzero"/></g></svg>